<svg width="54" height="60" viewBox="0 0 54 60" fill="none" xmlns="http://www.w3.org/2000/svg">
    <path d="M43.565 59.0853H10.0149C7.34942 59.0421 4.80604 57.8543 2.93277 55.7776C1.0595 53.7009 0.00627503 50.9016 0 47.9827V11.2485C0.0393888 8.33002 1.12429 5.54526 3.02098 3.4942C4.91767 1.44314 7.47432 0.289952 10.1401 0.283081H43.565C46.2308 0.289952 48.7874 1.44314 50.6841 3.4942C52.5808 5.54526 53.6657 8.33002 53.7051 11.2485V47.9827C53.6985 50.9251 52.628 53.7449 50.7278 55.8254C48.8276 57.906 46.2523 59.078 43.565 59.0853ZM10.0149 4.25805C8.32369 4.26527 6.70359 5.00408 5.50768 6.31349C4.31178 7.62289 3.63701 9.39676 3.63041 11.2485V47.9827C3.63701 49.8345 4.31178 51.6084 5.50768 52.9178C6.70359 54.2272 8.32369 54.966 10.0149 54.9732H43.565C45.2562 54.966 46.8763 54.2272 48.0722 52.9178C49.2681 51.6084 49.9429 49.8345 49.9495 47.9827V11.2485C49.9429 9.39676 49.2681 7.62289 48.0722 6.31349C46.8763 5.00408 45.2562 4.26527 43.565 4.25805H10.0149Z" fill="#292929"/>
    <path d="M30.5944 27.395C30.1172 27.399 29.6548 27.214 29.2924 26.8741C28.9408 26.4886 28.7433 25.9661 28.7433 25.4212C28.7433 24.8764 28.9408 24.3538 29.2924 23.9683L32.2969 20.6786H18.5013C18.0033 20.6786 17.5257 20.462 17.1735 20.0765C16.8214 19.6909 16.6235 19.1679 16.6235 18.6226C16.6235 18.0773 16.8214 17.5544 17.1735 17.1688C17.5257 16.7832 18.0033 16.5666 18.5013 16.5666H36.8036C37.1744 16.5601 37.5383 16.6772 37.8468 16.9024C38.1554 17.1277 38.3941 17.4504 38.5312 17.8276C38.679 18.2029 38.7198 18.6183 38.6484 19.0194C38.5769 19.4205 38.3964 19.7886 38.1306 20.0755L31.9214 26.8741C31.5576 27.2298 31.0817 27.4166 30.5944 27.395Z" fill="#292929"/>
    <path d="M36.8029 20.5966C36.3071 20.5848 35.8335 20.3696 35.4759 19.9935L29.2916 13.1675C28.9837 12.7906 28.8135 12.3026 28.8135 11.7969C28.8135 11.2911 28.9837 10.8031 29.2916 10.4262C29.4643 10.2322 29.6706 10.078 29.8985 9.97278C30.1264 9.86752 30.3713 9.81329 30.6186 9.81329C30.866 9.81329 31.1108 9.86752 31.3387 9.97278C31.5666 10.078 31.773 10.2322 31.9456 10.4262L38.1549 17.2248C38.5065 17.6103 38.704 18.1328 38.704 18.6777C38.704 19.2225 38.5065 19.7451 38.1549 20.1306C37.7746 20.4683 37.2912 20.6349 36.8029 20.5966Z" fill="#292929"/>
    <path d="M22.9834 49.5452C22.736 49.5513 22.4902 49.5008 22.2617 49.397C22.0332 49.2931 21.8271 49.1382 21.6564 48.9421L15.4471 42.1435C15.1822 41.862 15.0001 41.5002 14.9243 41.1045C14.8484 40.7089 14.8823 40.2975 15.0215 39.923C15.1648 39.5428 15.4078 39.2176 15.7196 38.9883C16.0315 38.759 16.3984 38.6359 16.7741 38.6346H35.1265C35.6245 38.6346 36.1021 38.8512 36.4543 39.2368C36.8064 39.6224 37.0043 40.1453 37.0043 40.6906C37.0043 41.2359 36.8064 41.7588 36.4543 42.1444C36.1021 42.53 35.6245 42.7466 35.1265 42.7466H21.3059L24.2853 46.0637C24.637 46.4492 24.8345 46.9717 24.8345 47.5166C24.8345 48.0614 24.637 48.584 24.2853 48.9695C23.9371 49.341 23.4695 49.5478 22.9834 49.5452Z" fill="#292929"/>
    <path d="M16.7754 42.7468C16.5285 42.7496 16.2836 42.6977 16.0555 42.594C15.8275 42.4903 15.6209 42.3372 15.4484 42.1437C15.2713 41.9547 15.1305 41.7288 15.0343 41.4792C14.9382 41.2297 14.8887 40.9616 14.8887 40.6908C14.8887 40.4199 14.9382 40.1519 15.0343 39.9023C15.1305 39.6528 15.2713 39.4269 15.4484 39.2379L21.7829 32.357C21.9506 32.1213 22.1633 31.9284 22.4061 31.7918C22.6488 31.6552 22.9159 31.5782 23.1886 31.5662C23.4614 31.5541 23.7332 31.6074 23.9852 31.7221C24.2373 31.8369 24.4634 32.0104 24.648 32.2306C24.8325 32.4508 24.9709 32.7124 25.0537 32.9972C25.1364 33.282 25.1615 33.5832 25.1271 33.8796C25.0927 34.1761 24.9997 34.4608 24.8545 34.7139C24.7094 34.967 24.5156 35.1824 24.2866 35.3451L18.1024 42.1437C17.929 42.3359 17.7223 42.4882 17.4945 42.5918C17.2666 42.6954 17.0221 42.7481 16.7754 42.7468Z" fill="#292929"/>
</svg>
