<svg width="55" height="56" viewBox="0 0 55 56" fill="none" xmlns="http://www.w3.org/2000/svg">
    <path d="M37.4283 28.924H1.91612C1.40999 28.9167 0.926455 28.6934 0.568537 28.3015C0.210618 27.9096 0.00661692 27.3802 0 26.826V13.8465C0.00661692 13.2923 0.210618 12.7629 0.568537 12.371C0.926455 11.9791 1.40999 11.7558 1.91612 11.7485H37.4283C37.9365 11.7485 38.4238 11.9696 38.7832 12.363C39.1425 12.7565 39.3444 13.2901 39.3444 13.8465V26.826C39.3444 27.3824 39.1425 27.9161 38.7832 28.3095C38.4238 28.703 37.9365 28.924 37.4283 28.924ZM3.83225 24.728H35.5122V16.0284H3.83225V24.728Z" fill="#292929"/>
    <path d="M37.4283 55.3866H1.91612C1.40999 55.3793 0.926455 55.156 0.568537 54.7641C0.210618 54.3722 0.00661692 53.8428 0 53.2886V40.3091C0.00661692 39.7549 0.210618 39.2255 0.568537 38.8336C0.926455 38.4417 1.40999 38.2184 1.91612 38.2111H37.4283C37.9365 38.2111 38.4238 38.4322 38.7832 38.8256C39.1425 39.2191 39.3444 39.7527 39.3444 40.3091V53.2886C39.3444 53.845 39.1425 54.3786 38.7832 54.7721C38.4238 55.1655 37.9365 55.3866 37.4283 55.3866ZM3.83225 51.1906H35.5122V42.4071H3.83225V51.1906Z" fill="#292929"/>
    <path d="M51.7344 22.4342H37.4274C36.9192 22.4342 36.4318 22.2132 36.0725 21.8198C35.7131 21.4263 35.5112 20.8927 35.5112 20.3363C35.5112 19.7798 35.7131 19.2462 36.0725 18.8528C36.4318 18.4593 36.9192 18.2383 37.4274 18.2383H51.7344C52.2426 18.2383 52.73 18.4593 53.0893 18.8528C53.4487 19.2462 53.6505 19.7798 53.6505 20.3363C53.6505 20.8927 53.4487 21.4263 53.0893 21.8198C52.73 22.2132 52.2426 22.4342 51.7344 22.4342Z" fill="#292929"/>
    <path d="M52.7066 49.848H38.3995C37.8913 49.848 37.404 49.627 37.0446 49.2335C36.6853 48.8401 36.4834 48.3064 36.4834 47.75C36.4834 47.1936 36.6853 46.66 37.0446 46.2665C37.404 45.8731 37.8913 45.652 38.3995 45.652H50.7905V2.09798C50.7905 1.54156 50.9923 1.00793 51.3517 0.614484C51.711 0.221037 52.1984 0 52.7066 0C53.2148 0 53.7021 0.221037 54.0615 0.614484C54.4208 1.00793 54.6227 1.54156 54.6227 2.09798V47.75C54.6161 48.3042 54.4121 48.8336 54.0542 49.2255C53.6962 49.6174 53.2127 49.8408 52.7066 49.848Z" fill="#292929"/>
</svg>
