<svg width="37" height="37" viewBox="0 0 37 37" fill="none" xmlns="http://www.w3.org/2000/svg">
    <path d="M37 18.5C37 28.7173 28.7173 37 18.5 37C8.28273 37 0 28.7173 0 18.5C0 8.28273 8.28273 0 18.5 0C28.7173 0 37 8.28273 37 18.5Z" fill="#F3CB3C"/>
    <path d="M29.3813 8.09959C30.7526 9.47091 30.9879 10.6956 30.9267 11.5661C30.8652 12.4414 30.4923 13.0774 30.3743 13.2579L17.3121 26.32L8.82342 28.6575L11.1609 20.1687L24.223 7.10661C24.4035 6.98863 25.0395 6.61572 25.9148 6.55418C26.7853 6.49301 28.01 6.72828 29.3813 8.09959Z" stroke="white" stroke-width="2"/>
</svg>
