<svg width="50" height="67" viewBox="0 0 50 67" fill="none" xmlns="http://www.w3.org/2000/svg">
    <path d="M22.9167 11.8013H32.9171C35.2506 11.8013 36.4168 11.8013 37.3081 12.3959C38.0921 12.919 38.7302 13.753 39.1296 14.7796C39.5833 15.9456 39.5833 17.4727 39.5833 20.5223V25.4415L22.9168 25.4413M22.9167 11.8013H12.9171C10.5835 11.8013 9.41588 11.8013 8.52458 12.3959C7.74057 12.919 7.10361 13.753 6.70414 14.7796C6.25 15.9467 6.25 17.4756 6.25 20.5312V25.441M22.9167 11.8013L22.9168 25.4413M6.25 25.441V41.8087M6.25 25.441L22.9168 25.4413M6.25 41.8087V46.7195C6.25 49.7751 6.25 51.3021 6.70414 52.4692C7.10361 53.4958 7.74057 54.3313 8.52458 54.8543C9.415 55.4484 10.5812 55.4484 12.9102 55.4484H22.9171L22.9168 25.4413M6.25 41.8087H22.9167M31.25 44.5366H37.5M37.5 44.5366H43.75M37.5 44.5366V52.7205M37.5 44.5366V36.3528" stroke="white" stroke-width="2" stroke-linecap="round" stroke-linejoin="round"/>
</svg>
